<svg width="70" height="68" viewBox="0 0 70 68" fill="none" xmlns="http://www.w3.org/2000/svg">
<path d="M38 16.0002C38 14.8939 37.3906 13.8814 36.4156 13.3564C35.4406 12.8314 34.2594 12.8877 33.3312 13.5064L24.3312 19.5064C22.9531 20.4252 22.5875 22.2814 23.5063 23.6689C24.425 25.0564 26.2906 25.422 27.6687 24.5033L32 21.6064V49.0002H26C24.3406 49.0002 23 50.3408 23 52.0002C23 53.6595 24.3406 55.0002 26 55.0002H35H44C45.6594 55.0002 47 53.6595 47 52.0002C47 50.3408 45.6594 49.0002 44 49.0002H38V16.0002Z" fill="#EE7733"/>
</svg>
