<svg width="18" height="21" viewBox="0 0 18 21" fill="none" xmlns="http://www.w3.org/2000/svg">
<g clip-path="url(#clip0_186_2331)">
<path d="M6.42857 15.8967C6.42857 16.2465 6.13929 16.5326 5.78571 16.5326C5.43214 16.5326 5.14286 16.2465 5.14286 15.8967V7.63043C5.14286 7.28071 5.43214 6.99457 5.78571 6.99457C6.13929 6.99457 6.42857 7.28071 6.42857 7.63043V15.8967ZM9.64286 15.8967C9.64286 16.2465 9.35357 16.5326 9 16.5326C8.64643 16.5326 8.35714 16.2465 8.35714 15.8967V7.63043C8.35714 7.28071 8.64643 6.99457 9 6.99457C9.35357 6.99457 9.64286 7.28071 9.64286 7.63043V15.8967ZM12.8571 15.8967C12.8571 16.2465 12.5679 16.5326 12.2143 16.5326C11.8607 16.5326 11.5714 16.2465 11.5714 15.8967V7.63043C11.5714 7.28071 11.8607 6.99457 12.2143 6.99457C12.5679 6.99457 12.8571 7.28071 12.8571 7.63043V15.8967ZM12.7567 0.991162L14.2313 3.17935H17.0357C17.5701 3.17935 18 3.60657 18 4.13315C18 4.66172 17.5701 5.08696 17.0357 5.08696H16.7143V17.1685C16.7143 18.9251 15.2759 20.3478 13.5 20.3478H4.5C2.72491 20.3478 1.28571 18.9251 1.28571 17.1685V5.08696H0.964286C0.43192 5.08696 0 4.66172 0 4.13315C0 3.60657 0.43192 3.17935 0.964286 3.17935H3.76955L5.2433 0.991162C5.66116 0.371864 6.36429 0 7.11563 0H10.8844C11.6357 0 12.3388 0.371904 12.7567 0.991162ZM6.08705 3.17935H11.9129L11.1496 2.04909C11.0893 1.96086 10.9888 1.90761 10.8844 1.90761H7.11563C7.01116 1.90761 6.87455 1.96086 6.85045 2.04909L6.08705 3.17935ZM3.21429 17.1685C3.21429 17.8719 3.79004 18.4402 4.5 18.4402H13.5C14.2112 18.4402 14.7857 17.8719 14.7857 17.1685V5.08696H3.21429V17.1685Z" fill="#A0938C"/>
</g>
<defs>
<clipPath id="clip0_186_2331">
<rect width="18" height="20.3478" fill="white"/>
</clipPath>
</defs>
</svg>
