<svg width="71" height="68" viewBox="0 0 71 68" fill="none" xmlns="http://www.w3.org/2000/svg">
<g clip-path="url(#clip0_186_2361)">
<path d="M34.3602 20.9028C32.3446 20.9028 30.404 21.6867 28.979 23.0979L26.0821 25.9386C24.9102 27.0915 23.0071 27.0915 21.8352 25.9386C20.6633 24.7857 20.6633 22.9134 21.8352 21.7605L24.7321 18.9198C27.2915 16.4111 30.7508 15 34.3602 15C41.8696 15 47.9633 20.995 47.9633 28.3827C47.9633 31.9336 46.529 35.3369 43.979 37.8456L31.2102 50.4167H47.9633C49.6227 50.4167 50.9633 51.7356 50.9633 53.3681C50.9633 55.0005 49.6227 56.3194 47.9633 56.3194H23.9633C22.754 56.3194 21.6571 55.6 21.1883 54.4933C20.7196 53.3865 20.9821 52.1229 21.8352 51.2744L39.7321 33.6768C41.1571 32.2748 41.9633 30.3657 41.9633 28.3827C41.9633 24.2508 38.5602 20.9028 34.3602 20.9028Z" fill="#EE7733"/>
</g>
<defs>
<clipPath id="clip0_186_2361">
<rect width="30" height="47.2222" fill="white" transform="translate(20.9563 10)"/>
</clipPath>
</defs>
</svg>
